HIERARCHY
ROOT Hips
{
	OFFSET 55.310501 45.591206 43.872097
	CHANNELS 6 Xposition Yposition Zposition Zrotation Xrotation Yrotation
	JOINT Chest
	{
		OFFSET -0.153500 1.163101 7.852402
		CHANNELS 6 Xposition Yposition Zposition Zrotation Xrotation Yrotation
		JOINT Chest2
		{
			OFFSET 0.000000 0.000000 3.343300
			CHANNELS 6 Xposition Yposition Zposition Zrotation Xrotation Yrotation
			JOINT Neck
			{
				OFFSET 0.000000 0.000000 7.785500
				CHANNELS 6 Xposition Yposition Zposition Zrotation Xrotation Yrotation
				JOINT Head
				{
					OFFSET 0.000000 0.000000 2.173901
					CHANNELS 6 Xposition Yposition Zposition Zrotation Xrotation Yrotation
					End Site
					{
						OFFSET 0.000000 0.000000 10.528198
					}
				}
			}
			JOINT LeftCollar
			{
				OFFSET 2.676300 -1.652401 4.938301
				CHANNELS 6 Xposition Yposition Zposition Zrotation Xrotation Yrotation
				JOINT LeftShoulder
				{
					OFFSET 4.299000 0.000000 0.000000
					CHANNELS 6 Xposition Yposition Zposition Zrotation Xrotation Yrotation
					JOINT LeftElbow
					{
						OFFSET 0.000000 0.000000 -10.245102
						CHANNELS 6 Xposition Yposition Zposition Zrotation Xrotation Yrotation
						JOINT LeftWrist
						{
							OFFSET 0.000000 0.000000 -12.703300
							CHANNELS 6 Xposition Yposition Zposition Zrotation Xrotation Yrotation
							End Site
							{
								OFFSET 0.000000 0.000000 -2.173901
							}
						}
					}
				}
			}
			JOINT RightCollar
			{
				OFFSET -2.534599 -1.686401 5.195000
				CHANNELS 6 Xposition Yposition Zposition Zrotation Xrotation Yrotation
				JOINT RightShoulder
				{
					OFFSET -4.144100 0.000000 0.000000
					CHANNELS 6 Xposition Yposition Zposition Zrotation Xrotation Yrotation
					JOINT RightElbow
					{
						OFFSET 0.000000 0.000000 -10.116501
						CHANNELS 6 Xposition Yposition Zposition Zrotation Xrotation Yrotation
						JOINT RightWrist
						{
							OFFSET 0.000000 0.000000 -12.937801
							CHANNELS 6 Xposition Yposition Zposition Zrotation Xrotation Yrotation
							End Site
							{
								OFFSET 0.000000 0.000000 -2.173901
							}
						}
					}
				}
			}
		}
	}
	JOINT LeftHip
	{
		OFFSET 2.175598 0.064499 -2.662899
		CHANNELS 6 Xposition Yposition Zposition Zrotation Xrotation Yrotation
		JOINT LeftKnee
		{
			OFFSET 0.000000 -0.000004 -18.585800
			CHANNELS 6 Xposition Yposition Zposition Zrotation Xrotation Yrotation
			JOINT LeftAnkle
			{
				OFFSET 0.000000 0.000000 -18.979500
				CHANNELS 6 Xposition Yposition Zposition Zrotation Xrotation Yrotation
				End Site
				{
					OFFSET 0.000000 -9.264000 0.000000
				}
			}
		}
	}
	JOINT RightHip
	{
		OFFSET -2.092400 -0.058102 -2.581200
		CHANNELS 6 Xposition Yposition Zposition Zrotation Xrotation Yrotation
		JOINT RightKnee
		{
			OFFSET 0.000000 -0.000004 -18.665001
			CHANNELS 6 Xposition Yposition Zposition Zrotation Xrotation Yrotation
			JOINT RightAnkle
			{
				OFFSET 0.000000 0.000000 -18.566601
				CHANNELS 6 Xposition Yposition Zposition Zrotation Xrotation Yrotation
				End Site
				{
					OFFSET 0.000000 -8.497601 0.000000
				}
			}
		}
	}
}
MOTION
Frames: 7
Frame Time: 0.041667
41.369503 50.762699 41.081795 352.737579 17.760884 -5.143078 -0.153501 1.163102 7.852403 9.273157 7.186641 -8.078281 0.000003 0.000004 3.343297 -16.998143 -10.836442 -2.134637 -0.000006 0.000000 7.785501 -27.343453 18.673597 3.420597 -0.000000 0.000004 2.173900 -4.762532 -1.069321 -6.460998 2.676292 -1.652401 4.938301 10.265966 3.203219 -2.112031 4.299002 0.000002 -0.000003 -93.975091 -2.646082 -119.501003 -0.000002 0.000008 -10.245095 176.264260 197.508088 179.967343 -0.000009 0.000009 -12.703297 2.974024 -0.841098 25.022781 -2.534595 -1.686398 5.194993 19.169580 18.783642 -16.443793 -4.144105 0.000008 0.000009 -26.327905 12.613455 113.854192 0.000000 0.000002 -10.116497 -41.176253 -0.377774 -2.299739 0.000004 -0.000006 -12.937799 -62.461923 0.823694 -10.727553 2.175598 0.064501 -2.662895 -332.460277 -36.359132 -6.055030 -0.000001 -0.000005 -18.585798 152.733876 -220.622091 -172.334101 -0.000005 0.000002 -18.979502 352.682282 8.434498 -15.855335 -2.092402 -0.058094 -2.581191 -131.991821 -18.263226 -66.806511 0.000007 -0.000007 -18.665007 -604.345629 50.787026 -26.561870 0.000010 -0.000002 -18.566603 723.457189 33.022056 7.973349
42.373901 50.573902 41.803089 351.348373 17.114065 -4.913684 -0.153498 1.163099 7.852410 10.556281 5.630951 -8.184287 0.000011 -0.000002 3.343305 -16.179917 -10.336670 -1.950739 0.000006 -0.000002 7.785500 -28.658203 19.541019 5.250721 -0.000001 0.000011 2.173908 -4.867006 -1.265824 -6.391930 2.676300 -1.652397 4.938300 9.898843 3.734180 -0.982929 4.298995 -0.000010 -0.000003 -90.242051 -1.918321 -123.097822 -0.000001 0.000001 -10.245102 178.572687 196.485035 180.180049 -0.000004 0.000004 -12.703293 5.144884 -1.838739 26.917557 -2.534593 -1.686406 5.195001 19.636268 19.200394 -16.360921 -4.144108 0.000004 0.000004 -29.154236 9.336402 116.709273 0.000004 -0.000002 -10.116499 -40.527392 -0.310137 -1.990712 0.000003 0.000005 -12.937801 -64.633076 0.906859 -9.730123 2.175593 0.064495 -2.662904 -340.981485 -31.546209 -10.244952 0.000005 -0.000002 -18.585793 157.871667 -217.087604 -171.738099 -0.000011 0.000004 -18.979498 355.958560 8.782850 -14.176911 -2.092400 -0.058107 -2.581197 -135.237445 -16.674051 -67.782066 0.000009 0.000001 -18.665010 -641.238868 52.641911 -0.788098 0.000004 -0.000005 -18.566601 746.883262 41.344088 9.151546
43.341412 50.413700 42.445393 350.021295 16.625106 -4.794262 -0.153499 1.163094 7.852403 11.785571 4.088934 -8.160295 0.000000 -0.000004 3.343302 -15.646196 -9.807017 -1.806635 -0.000001 0.000006 7.785501 -29.629507 20.198372 6.915993 -0.000000 0.000005 2.173899 -4.916311 -1.415067 -6.309692 2.676301 -1.652400 4.938308 9.813318 4.069199 -0.678423 4.299001 -0.000002 0.000004 -86.393676 -2.415516 -126.377187 0.000002 0.000009 -10.245113 180.950877 195.262254 180.317117 0.000002 0.000003 -12.703297 7.710794 -2.438711 28.409053 -2.534597 -1.686398 5.195004 20.079149 19.447642 -15.129907 -4.144102 -0.000004 -0.000001 -31.238417 6.618764 118.836904 0.000000 0.000000 -10.116496 -40.454937 -0.166201 -1.703106 -0.000002 0.000002 -12.937803 -66.227652 0.739436 -8.311825 2.175591 0.064496 -2.662895 -348.197088 -26.869368 -12.894243 0.000000 -0.000010 -18.585802 162.915844 -213.569825 -171.246585 -0.000006 -0.000001 -18.979502 358.709815 9.015525 -12.091146 -2.092403 -0.058109 -2.581201 -138.327955 -15.241345 -69.474430 -0.000002 -0.000005 -18.665007 -661.081989 50.651703 12.461713 0.000001 -0.000006 -18.566605 763.313801 45.150392 2.561178
44.255409 50.279701 42.999092 348.864261 16.172006 -4.767847 -0.153498 1.163098 7.852407 12.864481 2.861780 -8.049503 0.000006 0.000003 3.343307 -15.616321 -9.458667 -1.795009 0.000005 0.000011 7.785508 -30.060971 20.656790 8.468033 0.000003 0.000002 2.173901 -4.850042 -1.454338 -6.268128 2.676298 -1.652388 4.938305 10.142554 4.219307 -0.149873 4.298998 -0.000005 0.000000 -82.608802 -3.129321 -129.215964 -0.000010 0.000000 -10.245104 182.991778 193.636382 180.253569 -0.000003 0.000009 -12.703294 10.879226 -2.853951 29.874971 -2.534593 -1.686390 5.195010 19.591612 19.572742 -14.599413 -4.144102 -0.000002 0.000007 -31.361264 3.496304 121.989269 0.000003 -0.000000 -10.116495 -40.262019 0.000114 -1.013495 0.000005 0.000005 -12.937805 -67.376005 0.204497 -7.756149 2.175597 0.064491 -2.662895 -353.095044 -22.946857 -13.917080 -0.000008 -0.000005 -18.585796 166.597166 -210.315349 -170.888820 -0.000009 -0.000005 -18.979498 360.932932 9.246540 -10.261971 -2.092400 -0.058100 -2.581188 -141.140122 -14.079175 -71.657523 0.000004 -0.000005 -18.665010 -660.603001 52.870797 11.889574 0.000007 0.000007 -18.566603 763.530892 45.499916 1.869142
45.109409 50.164101 43.465096 347.972675 15.698643 -4.820608 -0.153503 1.163100 7.852407 13.664278 1.783745 -7.809324 0.000000 0.000001 3.343298 -15.642622 -9.094393 -1.738082 -0.000004 -0.000004 7.785500 -30.346035 21.026683 9.702901 -0.000005 0.000006 2.173901 -4.738256 -1.405431 -6.207693 2.676291 -1.652408 4.938304 10.333809 3.920148 0.233219 4.299008 -0.000007 0.000002 -78.723203 -4.018790 -131.303106 -0.000003 -0.000005 -10.245105 184.308966 191.696171 179.799935 -0.000010 0.000008 -12.703302 16.241937 -2.676764 30.059888 -2.534601 -1.686408 5.195000 19.110792 19.474915 -13.617854 -4.144094 -0.000001 -0.000006 -30.232330 -0.185849 124.462084 0.000009 0.000003 -10.116498 -40.616318 -0.116410 0.018994 -0.000007 -0.000002 -12.937795 -66.276713 -0.620156 -6.997422 2.175591 0.064490 -2.662896 -360.449628 -18.292688 -15.353553 -0.000001 0.000001 -18.585808 172.685036 -206.740947 -170.474350 -0.000002 0.000004 -18.979500 363.150066 9.589524 -8.606983 -2.092402 -0.058107 -2.581195 -144.098427 -12.508796 -74.333946 0.000000 -0.000010 -18.665009 -640.084730 58.170105 -3.347572 0.000002 -0.000001 -18.566605 750.599213 42.970397 5.050787
45.902000 50.058201 43.852997 347.362548 15.201332 -4.864812 -0.153502 1.163111 7.852402 14.191789 0.899495 -7.577642 0.000003 0.000001 3.343302 -15.613901 -8.817625 -1.643438 0.000007 -0.000002 7.785492 -30.629809 21.322626 10.673051 -0.000003 -0.000010 2.173904 -4.603930 -1.216507 -6.137649 2.676298 -1.652397 4.938293 11.453758 2.953089 0.491016 4.299003 -0.000009 0.000004 -76.026453 -4.952595 -132.430155 0.000001 -0.000001 -10.245101 184.895529 189.417197 179.312806 -0.000015 -0.000003 -12.703294 22.264760 -2.772529 30.227514 -2.534593 -1.686408 5.194991 18.582872 19.086475 -12.433821 -4.144098 0.000003 -0.000007 -27.964958 -3.724246 127.005442 -0.000003 0.000002 -10.116497 -41.386401 -0.148429 1.277176 0.000001 0.000004 -12.937805 -64.142675 -2.297377 -6.313432 2.175592 0.064506 -2.662898 -363.375653 -15.529287 -15.021300 -0.000003 -0.000007 -18.585804 176.771525 -204.218804 -170.812239 -0.000000 -0.000005 -18.979500 363.290795 10.180633 -8.475423 -2.092397 -0.058092 -2.581194 -146.104399 -12.623407 -77.002904 0.000002 -0.000003 -18.665001 -609.672521 59.053945 -28.797314 0.000007 0.000000 -18.566599 735.592468 37.342560 0.382668
46.640999 49.952702 44.175694 346.989374 14.641110 -4.918236 -0.153496 1.163097 7.852402 14.474209 0.273390 -7.266112 0.000001 0.000000 3.343297 -15.997818 -8.590359 -1.678910 0.000004 0.000000 7.785507 -30.542058 21.541498 11.521581 -0.000001 0.000006 2.173903 -4.417416 -0.977958 -6.084163 2.676301 -1.652403 4.938299 13.400989 1.579663 0.614880 4.299006 -0.000002 -0.000004 -73.705814 -5.963649 -132.738279 0.000003 -0.000005 -10.245107 185.133821 187.206483 178.803096 -0.000007 0.000002 -12.703295 29.838808 -2.651635 30.039527 -2.534594 -1.686399 5.195003 18.508582 18.373340 -11.200014 -4.144094 0.000003 0.000000 -24.488149 -7.207059 129.725236 0.000000 -0.000007 -10.116501 -43.998139 -0.101729 2.589927 0.000006 0.000007 -12.937803 -60.130021 -4.439702 -6.580750 2.175595 0.064495 -2.662906 -368.739264 -11.713587 -15.166944 -0.000003 -0.000013 -18.585800 181.517004 -200.787467 -170.476945 -0.000005 -0.000004 -18.979504 364.623119 10.574600 -7.212162 -2.092394 -0.058095 -2.581204 -149.081050 -10.660461 -80.114410 0.000003 0.000007 -18.665005 -576.598341 50.164557 -54.569178 0.000008 -0.000007 -18.566607 719.022647 30.520188 -9.717485
